<svg width="830" height="76" viewBox="0 0 830 76" fill="none" xmlns="http://www.w3.org/2000/svg">
<rect width="830" height="76" fill="#0D1117"/>
<rect x="1" y="1" width="827" height="74" rx="6" fill="#C9D1D9"/>
<path d="M136.087 32.717L131.262 46H129.29L134.846 31.4258H136.117L136.087 32.717ZM140.131 46L135.296 32.717L135.266 31.4258H136.537L142.113 46H140.131ZM139.881 40.6047V42.1863H131.693V40.6047H139.881ZM152.743 41.3655H154.665C154.565 42.2864 154.301 43.1105 153.874 43.8379C153.447 44.5653 152.843 45.1425 152.062 45.5696C151.282 45.99 150.307 46.2002 149.14 46.2002C148.285 46.2002 147.508 46.04 146.807 45.7197C146.113 45.3994 145.516 44.9456 145.016 44.3584C144.515 43.7645 144.128 43.0538 143.854 42.2263C143.588 41.3922 143.454 40.4646 143.454 39.4436V37.9922C143.454 36.9712 143.588 36.047 143.854 35.2195C144.128 34.3853 144.518 33.6713 145.026 33.0774C145.539 32.4835 146.157 32.0264 146.877 31.7061C147.598 31.3857 148.409 31.2256 149.31 31.2256C150.411 31.2256 151.342 31.4325 152.103 31.8462C152.863 32.2599 153.454 32.8338 153.874 33.5679C154.301 34.2952 154.565 35.1394 154.665 36.1003H152.743C152.65 35.4197 152.476 34.8358 152.223 34.3486C151.969 33.8548 151.609 33.4744 151.142 33.2075C150.674 32.9406 150.064 32.8071 149.31 32.8071C148.663 32.8071 148.092 32.9306 147.598 33.1775C147.111 33.4244 146.701 33.7747 146.367 34.2285C146.04 34.6823 145.793 35.2262 145.626 35.8601C145.459 36.4941 145.376 37.1981 145.376 37.9722V39.4436C145.376 40.1576 145.449 40.8283 145.596 41.4556C145.75 42.0828 145.98 42.6334 146.287 43.1072C146.594 43.581 146.984 43.9547 147.458 44.2283C147.932 44.4952 148.492 44.6287 149.14 44.6287C149.96 44.6287 150.614 44.4985 151.102 44.2383C151.589 43.978 151.956 43.6043 152.203 43.1172C152.456 42.63 152.636 42.0461 152.743 41.3655ZM166.557 44.4285V46H158.839V44.4285H166.557ZM159.229 31.4258V46H157.298V31.4258H159.229ZM165.536 37.6919V39.2634H158.839V37.6919H165.536ZM166.457 31.4258V33.0073H158.839V31.4258H166.457ZM176.717 42.3164C176.717 41.9761 176.663 41.6758 176.556 41.4155C176.456 41.1486 176.276 40.9084 176.016 40.6948C175.762 40.4813 175.409 40.2778 174.955 40.0842C174.508 39.8907 173.941 39.6938 173.253 39.4937C172.532 39.2801 171.882 39.0432 171.301 38.783C170.721 38.516 170.224 38.2124 169.81 37.8721C169.396 37.5317 169.079 37.1414 168.859 36.7009C168.639 36.2605 168.529 35.7567 168.529 35.1895C168.529 34.6222 168.645 34.0984 168.879 33.6179C169.112 33.1375 169.446 32.7204 169.88 32.3667C170.32 32.0063 170.844 31.7261 171.451 31.5259C172.059 31.3257 172.736 31.2256 173.483 31.2256C174.578 31.2256 175.505 31.4358 176.266 31.8562C177.034 32.2699 177.617 32.8138 178.018 33.4878C178.418 34.1551 178.618 34.8691 178.618 35.6299H176.697C176.697 35.0827 176.58 34.5989 176.346 34.1785C176.113 33.7514 175.759 33.4177 175.285 33.1775C174.811 32.9306 174.211 32.8071 173.483 32.8071C172.796 32.8071 172.229 32.9106 171.782 33.1174C171.335 33.3243 171.001 33.6046 170.781 33.9583C170.567 34.3119 170.46 34.7157 170.46 35.1694C170.46 35.4764 170.524 35.7567 170.651 36.0103C170.784 36.2572 170.988 36.4874 171.261 36.7009C171.542 36.9145 171.895 37.1113 172.322 37.2915C172.756 37.4717 173.273 37.6452 173.874 37.812C174.701 38.0456 175.415 38.3058 176.016 38.5928C176.616 38.8797 177.11 39.2034 177.497 39.5637C177.891 39.9174 178.181 40.3211 178.368 40.7749C178.562 41.222 178.658 41.7292 178.658 42.2964C178.658 42.8903 178.538 43.4275 178.298 43.908C178.058 44.3884 177.714 44.7988 177.267 45.1392C176.82 45.4795 176.283 45.7431 175.656 45.9299C175.035 46.1101 174.341 46.2002 173.573 46.2002C172.899 46.2002 172.236 46.1068 171.582 45.9199C170.934 45.7331 170.344 45.4528 169.81 45.0791C169.283 44.7054 168.859 44.245 168.539 43.6978C168.225 43.1439 168.068 42.5033 168.068 41.7759H169.99C169.99 42.2764 170.087 42.7068 170.28 43.0671C170.474 43.4208 170.737 43.7144 171.071 43.948C171.411 44.1816 171.795 44.3551 172.222 44.4685C172.656 44.5753 173.106 44.6287 173.573 44.6287C174.247 44.6287 174.818 44.5352 175.285 44.3484C175.752 44.1615 176.106 43.8946 176.346 43.5476C176.593 43.2006 176.717 42.7902 176.717 42.3164ZM188.888 42.3164C188.888 41.9761 188.835 41.6758 188.728 41.4155C188.628 41.1486 188.448 40.9084 188.188 40.6948C187.934 40.4813 187.58 40.2778 187.127 40.0842C186.68 39.8907 186.112 39.6938 185.425 39.4937C184.704 39.2801 184.054 39.0432 183.473 38.783C182.893 38.516 182.395 38.2124 181.982 37.8721C181.568 37.5317 181.251 37.1414 181.031 36.7009C180.811 36.2605 180.7 35.7567 180.7 35.1895C180.7 34.6222 180.817 34.0984 181.051 33.6179C181.284 33.1375 181.618 32.7204 182.052 32.3667C182.492 32.0063 183.016 31.7261 183.623 31.5259C184.231 31.3257 184.908 31.2256 185.655 31.2256C186.75 31.2256 187.677 31.4358 188.438 31.8562C189.205 32.2699 189.789 32.8138 190.19 33.4878C190.59 34.1551 190.79 34.8691 190.79 35.6299H188.868C188.868 35.0827 188.752 34.5989 188.518 34.1785C188.285 33.7514 187.931 33.4177 187.457 33.1775C186.983 32.9306 186.383 32.8071 185.655 32.8071C184.968 32.8071 184.401 32.9106 183.954 33.1174C183.507 33.3243 183.173 33.6046 182.953 33.9583C182.739 34.3119 182.632 34.7157 182.632 35.1694C182.632 35.4764 182.696 35.7567 182.823 36.0103C182.956 36.2572 183.16 36.4874 183.433 36.7009C183.713 36.9145 184.067 37.1113 184.494 37.2915C184.928 37.4717 185.445 37.6452 186.046 37.812C186.873 38.0456 187.587 38.3058 188.188 38.5928C188.788 38.8797 189.282 39.2034 189.669 39.5637C190.063 39.9174 190.353 40.3211 190.54 40.7749C190.734 41.222 190.83 41.7292 190.83 42.2964C190.83 42.8903 190.71 43.4275 190.47 43.908C190.23 44.3884 189.886 44.7988 189.439 45.1392C188.992 45.4795 188.455 45.7431 187.827 45.9299C187.207 46.1101 186.513 46.2002 185.745 46.2002C185.071 46.2002 184.407 46.1068 183.753 45.9199C183.106 45.7331 182.516 45.4528 181.982 45.0791C181.455 44.7054 181.031 44.245 180.71 43.6978C180.397 43.1439 180.24 42.5033 180.24 41.7759H182.162C182.162 42.2764 182.259 42.7068 182.452 43.0671C182.646 43.4208 182.909 43.7144 183.243 43.948C183.583 44.1816 183.967 44.3551 184.394 44.4685C184.828 44.5753 185.278 44.6287 185.745 44.6287C186.419 44.6287 186.99 44.5352 187.457 44.3484C187.924 44.1615 188.278 43.8946 188.518 43.5476C188.765 43.2006 188.888 42.7902 188.888 42.3164ZM198.688 32.717L193.863 46H191.891L197.447 31.4258H198.718L198.688 32.717ZM202.732 46L197.897 32.717L197.867 31.4258H199.138L204.714 46H202.732ZM202.482 40.6047V42.1863H194.294V40.6047H202.482ZM206.666 31.4258H211.49C212.585 31.4258 213.509 31.5926 214.263 31.9263C215.024 32.2599 215.601 32.7537 215.995 33.4077C216.395 34.055 216.595 34.8525 216.595 35.8C216.595 36.4674 216.459 37.078 216.185 37.6318C215.918 38.179 215.531 38.6462 215.024 39.0332C214.523 39.4136 213.923 39.6972 213.222 39.884L212.682 40.0942H208.147L208.127 38.5227H211.551C212.245 38.5227 212.822 38.4026 213.282 38.1624C213.743 37.9154 214.09 37.5851 214.323 37.1714C214.557 36.7576 214.674 36.3005 214.674 35.8C214.674 35.2395 214.563 34.749 214.343 34.3286C214.123 33.9082 213.776 33.5846 213.302 33.3577C212.835 33.1241 212.231 33.0073 211.49 33.0073H208.598V46H206.666V31.4258ZM215.184 46L211.641 39.3936L213.653 39.3835L217.246 45.8799V46H215.184ZM224.383 31.4258H229.208C230.302 31.4258 231.226 31.5926 231.98 31.9263C232.741 32.2599 233.318 32.7537 233.712 33.4077C234.113 34.055 234.313 34.8525 234.313 35.8C234.313 36.4674 234.176 37.078 233.902 37.6318C233.635 38.179 233.248 38.6462 232.741 39.0332C232.241 39.4136 231.64 39.6972 230.939 39.884L230.399 40.0942H225.865L225.844 38.5227H229.268C229.962 38.5227 230.539 38.4026 231 38.1624C231.46 37.9154 231.807 37.5851 232.041 37.1714C232.274 36.7576 232.391 36.3005 232.391 35.8C232.391 35.2395 232.281 34.749 232.061 34.3286C231.84 33.9082 231.493 33.5846 231.02 33.3577C230.552 33.1241 229.948 33.0073 229.208 33.0073H226.315V46H224.383V31.4258ZM232.901 46L229.358 39.3936L231.37 39.3835L234.963 45.8799V46H232.901ZM246.274 44.4285V46H238.557V44.4285H246.274ZM238.947 31.4258V46H237.015V31.4258H238.947ZM245.253 37.6919V39.2634H238.557V37.6919H245.253ZM246.174 31.4258V33.0073H238.557V31.4258H246.174ZM256.434 42.3164C256.434 41.9761 256.381 41.6758 256.274 41.4155C256.174 41.1486 255.994 40.9084 255.734 40.6948C255.48 40.4813 255.126 40.2778 254.673 40.0842C254.226 39.8907 253.658 39.6938 252.971 39.4937C252.25 39.2801 251.6 39.0432 251.019 38.783C250.438 38.516 249.941 38.2124 249.528 37.8721C249.114 37.5317 248.797 37.1414 248.577 36.7009C248.356 36.2605 248.246 35.7567 248.246 35.1895C248.246 34.6222 248.363 34.0984 248.597 33.6179C248.83 33.1375 249.164 32.7204 249.598 32.3667C250.038 32.0063 250.562 31.7261 251.169 31.5259C251.776 31.3257 252.454 31.2256 253.201 31.2256C254.296 31.2256 255.223 31.4358 255.984 31.8562C256.751 32.2699 257.335 32.8138 257.736 33.4878C258.136 34.1551 258.336 34.8691 258.336 35.6299H256.414C256.414 35.0827 256.298 34.5989 256.064 34.1785C255.83 33.7514 255.477 33.4177 255.003 33.1775C254.529 32.9306 253.929 32.8071 253.201 32.8071C252.514 32.8071 251.947 32.9106 251.5 33.1174C251.052 33.3243 250.719 33.6046 250.499 33.9583C250.285 34.3119 250.178 34.7157 250.178 35.1694C250.178 35.4764 250.242 35.7567 250.368 36.0103C250.502 36.2572 250.705 36.4874 250.979 36.7009C251.259 36.9145 251.613 37.1113 252.04 37.2915C252.474 37.4717 252.991 37.6452 253.592 37.812C254.419 38.0456 255.133 38.3058 255.734 38.5928C256.334 38.8797 256.828 39.2034 257.215 39.5637C257.609 39.9174 257.899 40.3211 258.086 40.7749C258.279 41.222 258.376 41.7292 258.376 42.2964C258.376 42.8903 258.256 43.4275 258.016 43.908C257.776 44.3884 257.432 44.7988 256.985 45.1392C256.538 45.4795 256.001 45.7431 255.373 45.9299C254.753 46.1101 254.059 46.2002 253.291 46.2002C252.617 46.2002 251.953 46.1068 251.299 45.9199C250.652 45.7331 250.061 45.4528 249.528 45.0791C249 44.7054 248.577 44.245 248.256 43.6978C247.943 43.1439 247.786 42.5033 247.786 41.7759H249.708C249.708 42.2764 249.805 42.7068 249.998 43.0671C250.192 43.4208 250.455 43.7144 250.789 43.948C251.129 44.1816 251.513 44.3551 251.94 44.4685C252.374 44.5753 252.824 44.6287 253.291 44.6287C253.965 44.6287 254.536 44.5352 255.003 44.3484C255.47 44.1615 255.824 43.8946 256.064 43.5476C256.311 43.2006 256.434 42.7902 256.434 42.3164ZM269.177 31.4258H271.099V41.2854C271.099 42.3798 270.855 43.2907 270.368 44.0181C269.881 44.7454 269.233 45.2926 268.426 45.6597C267.625 46.02 266.754 46.2002 265.813 46.2002C264.826 46.2002 263.932 46.02 263.131 45.6597C262.337 45.2926 261.706 44.7454 261.239 44.0181C260.779 43.2907 260.548 42.3798 260.548 41.2854V31.4258H262.46V41.2854C262.46 42.0461 262.6 42.6734 262.881 43.1672C263.161 43.6611 263.551 44.0281 264.052 44.2683C264.559 44.5085 265.146 44.6287 265.813 44.6287C266.487 44.6287 267.075 44.5085 267.575 44.2683C268.082 44.0281 268.476 43.6611 268.756 43.1672C269.037 42.6734 269.177 42.0461 269.177 41.2854V31.4258ZM282.97 44.4285V46H275.683V44.4285H282.97ZM276.063 31.4258V46H274.132V31.4258H276.063ZM287.805 31.4258V46H285.903V31.4258H287.805ZM292.49 31.4258V33.0073H281.229V31.4258H292.49ZM299.246 32.717L294.421 46H292.449L298.005 31.4258H299.276L299.246 32.717ZM303.29 46L298.455 32.717L298.425 31.4258H299.697L305.272 46H303.29ZM303.04 40.6047V42.1863H294.852V40.6047H303.04ZM311.168 46H308.125L308.145 44.4285H311.168C312.209 44.4285 313.076 44.2116 313.77 43.7778C314.464 43.3374 314.985 42.7235 315.332 41.936C315.685 41.1419 315.862 40.2144 315.862 39.1533V38.2625C315.862 37.4283 315.762 36.6876 315.562 36.0403C315.362 35.3863 315.068 34.8358 314.681 34.3887C314.294 33.9349 313.82 33.5912 313.26 33.3577C312.706 33.1241 312.069 33.0073 311.348 33.0073H308.065V31.4258H311.348C312.302 31.4258 313.173 31.5859 313.96 31.9062C314.748 32.2199 315.425 32.677 315.992 33.2776C316.566 33.8715 317.007 34.5922 317.314 35.4397C317.621 36.2805 317.774 37.2281 317.774 38.2825V39.1533C317.774 40.2077 317.621 41.1586 317.314 42.0061C317.007 42.8469 316.563 43.5643 315.982 44.1582C315.409 44.7521 314.715 45.2092 313.9 45.5295C313.093 45.8432 312.182 46 311.168 46ZM309.156 31.4258V46H307.224V31.4258H309.156ZM331.898 38.2524V39.1733C331.898 40.2677 331.761 41.2487 331.488 42.1162C331.214 42.9837 330.82 43.7211 330.306 44.3284C329.793 44.9356 329.175 45.3994 328.455 45.7197C327.741 46.04 326.94 46.2002 326.052 46.2002C325.191 46.2002 324.401 46.04 323.68 45.7197C322.966 45.3994 322.345 44.9356 321.818 44.3284C321.298 43.7211 320.894 42.9837 320.607 42.1162C320.32 41.2487 320.177 40.2677 320.177 39.1733V38.2524C320.177 37.158 320.317 36.1804 320.597 35.3196C320.884 34.4521 321.288 33.7147 321.808 33.1074C322.329 32.4935 322.946 32.0264 323.66 31.7061C324.381 31.3857 325.171 31.2256 326.032 31.2256C326.92 31.2256 327.721 31.3857 328.435 31.7061C329.155 32.0264 329.773 32.4935 330.286 33.1074C330.807 33.7147 331.204 34.4521 331.478 35.3196C331.758 36.1804 331.898 37.158 331.898 38.2524ZM329.986 39.1733V38.2324C329.986 37.3649 329.896 36.5975 329.716 35.9302C329.542 35.2629 329.285 34.7023 328.945 34.2485C328.605 33.7948 328.188 33.4511 327.694 33.2175C327.207 32.984 326.653 32.8672 326.032 32.8672C325.432 32.8672 324.888 32.984 324.401 33.2175C323.92 33.4511 323.506 33.7948 323.159 34.2485C322.819 34.7023 322.556 35.2629 322.369 35.9302C322.182 36.5975 322.088 37.3649 322.088 38.2324V39.1733C322.088 40.0475 322.182 40.8216 322.369 41.4956C322.556 42.1629 322.822 42.7268 323.169 43.1873C323.523 43.641 323.94 43.9847 324.421 44.2183C324.908 44.4518 325.452 44.5686 326.052 44.5686C326.68 44.5686 327.237 44.4518 327.724 44.2183C328.211 43.9847 328.621 43.641 328.955 43.1873C329.295 42.7268 329.552 42.1629 329.726 41.4956C329.899 40.8216 329.986 40.0475 329.986 39.1733Z" fill="#0D1117"/>
<path d="M113 39V45C113 45.5304 112.789 46.0391 112.414 46.4142C112.039 46.7893 111.53 47 111 47H100C99.4696 47 98.9609 46.7893 98.5858 46.4142C98.2107 46.0391 98 45.5304 98 45V34C98 33.4696 98.2107 32.9609 98.5858 32.5858C98.9609 32.2107 99.4696 32 100 32H106" stroke="#0D1117" stroke-width="2" stroke-linecap="round" stroke-linejoin="round"/>
<path d="M110 29H116V35" stroke="black" stroke-width="2" stroke-linecap="round" stroke-linejoin="round"/>
<path d="M105 40L116 29" stroke="black" stroke-width="2" stroke-linecap="round" stroke-linejoin="round"/>
<path d="M713.044 37.25C711.488 37.25 710.37 38.2633 710.37 39.7833C710.37 41.3033 711.63 42.3166 713.186 42.3166C714.124 42.3166 714.954 41.9461 715.467 41.3196L714.392 40.6985C714.108 41.0091 713.677 41.1889 713.191 41.1889C712.514 41.1889 711.941 40.8347 711.729 40.2736H715.674C715.707 40.1102 715.723 39.9467 715.723 39.7833C715.723 38.2633 714.604 37.25 713.044 37.25ZM711.712 39.2875C711.887 38.7264 712.372 38.3723 713.044 38.3723C713.715 38.3723 714.201 38.7264 714.375 39.2875H711.712ZM711.396 35.7028L707.494 42.4528L703.592 35.7028H705.055L707.494 39.9195L709.933 35.7028H711.396ZM698.206 35L703.412 44H693L698.206 35ZM721.382 39.7833C721.382 40.6277 721.933 41.1889 722.79 41.1889C723.368 41.1889 723.805 40.9274 724.029 40.497L725.115 41.118C724.667 41.8644 723.827 42.3111 722.795 42.3111C721.24 42.3111 720.121 41.2978 720.121 39.7778C720.121 38.2579 721.24 37.2446 722.795 37.2446C723.827 37.2446 724.667 37.6913 725.115 38.4377L724.034 39.0587C723.81 38.6283 723.374 38.3668 722.795 38.3668C721.939 38.3777 721.382 38.9389 721.382 39.7833ZM733 35.7028V42.1695H731.734V35.7028H733ZM728.214 37.25C726.659 37.25 725.54 38.2633 725.54 39.7833C725.54 41.3033 726.801 42.3166 728.356 42.3166C729.295 42.3166 730.124 41.9461 730.637 41.3196L729.562 40.6985C729.278 41.0091 728.847 41.1889 728.362 41.1889C727.685 41.1889 727.112 40.8347 726.899 40.2736H730.844C730.877 40.1102 730.894 39.9467 730.894 39.7833C730.888 38.2633 729.769 37.25 728.214 37.25ZM726.883 39.2875C727.057 38.7264 727.538 38.3723 728.214 38.3723C728.891 38.3723 729.371 38.7264 729.546 39.2875H726.883ZM719.696 37.3916V38.7536C719.548 38.71 719.396 38.6883 719.243 38.6828C718.424 38.6828 717.835 39.2439 717.835 40.0884V42.1695H716.569V37.3916H717.835V38.6828C717.835 37.9691 718.664 37.3916 719.696 37.3916Z" fill="#282E35"/>
</svg>
