<svg width="830" height="76" viewBox="0 0 830 76" fill="none" xmlns="http://www.w3.org/2000/svg">
<rect width="830" height="76" fill="#0D1117"/>
<rect x="1.5" y="1.5" width="826" height="73" rx="5.5" fill="#0D1117" stroke="#C9D1D9"/>
<path d="M136.087 32.717L131.262 46H129.29L134.846 31.4258H136.117L136.087 32.717ZM140.131 46L135.296 32.717L135.266 31.4258H136.537L142.113 46H140.131ZM139.881 40.6047V42.1863H131.693V40.6047H139.881ZM152.743 41.3655H154.665C154.565 42.2864 154.301 43.1105 153.874 43.8379C153.447 44.5653 152.843 45.1425 152.062 45.5696C151.282 45.99 150.307 46.2002 149.14 46.2002C148.285 46.2002 147.508 46.04 146.807 45.7197C146.113 45.3994 145.516 44.9456 145.016 44.3584C144.515 43.7645 144.128 43.0538 143.854 42.2263C143.588 41.3922 143.454 40.4646 143.454 39.4436V37.9922C143.454 36.9712 143.588 36.047 143.854 35.2195C144.128 34.3853 144.518 33.6713 145.026 33.0774C145.539 32.4835 146.157 32.0264 146.877 31.7061C147.598 31.3857 148.409 31.2256 149.31 31.2256C150.411 31.2256 151.342 31.4325 152.103 31.8462C152.863 32.2599 153.454 32.8338 153.874 33.5679C154.301 34.2952 154.565 35.1394 154.665 36.1003H152.743C152.65 35.4197 152.476 34.8358 152.223 34.3486C151.969 33.8548 151.609 33.4744 151.142 33.2075C150.674 32.9406 150.064 32.8071 149.31 32.8071C148.663 32.8071 148.092 32.9306 147.598 33.1775C147.111 33.4244 146.701 33.7747 146.367 34.2285C146.04 34.6823 145.793 35.2262 145.626 35.8601C145.459 36.4941 145.376 37.1981 145.376 37.9722V39.4436C145.376 40.1576 145.449 40.8283 145.596 41.4556C145.75 42.0828 145.98 42.6334 146.287 43.1072C146.594 43.581 146.984 43.9547 147.458 44.2283C147.932 44.4952 148.492 44.6287 149.14 44.6287C149.96 44.6287 150.614 44.4985 151.102 44.2383C151.589 43.978 151.956 43.6043 152.203 43.1172C152.456 42.63 152.636 42.0461 152.743 41.3655ZM166.557 44.4285V46H158.839V44.4285H166.557ZM159.229 31.4258V46H157.298V31.4258H159.229ZM165.536 37.6919V39.2634H158.839V37.6919H165.536ZM166.457 31.4258V33.0073H158.839V31.4258H166.457ZM176.717 42.3164C176.717 41.9761 176.663 41.6758 176.556 41.4155C176.456 41.1486 176.276 40.9084 176.016 40.6948C175.762 40.4813 175.409 40.2778 174.955 40.0842C174.508 39.8907 173.941 39.6938 173.253 39.4937C172.532 39.2801 171.882 39.0432 171.301 38.783C170.721 38.516 170.224 38.2124 169.81 37.8721C169.396 37.5317 169.079 37.1414 168.859 36.7009C168.639 36.2605 168.529 35.7567 168.529 35.1895C168.529 34.6222 168.645 34.0984 168.879 33.6179C169.112 33.1375 169.446 32.7204 169.88 32.3667C170.32 32.0063 170.844 31.7261 171.451 31.5259C172.059 31.3257 172.736 31.2256 173.483 31.2256C174.578 31.2256 175.505 31.4358 176.266 31.8562C177.034 32.2699 177.617 32.8138 178.018 33.4878C178.418 34.1551 178.618 34.8691 178.618 35.6299H176.697C176.697 35.0827 176.58 34.5989 176.346 34.1785C176.113 33.7514 175.759 33.4177 175.285 33.1775C174.811 32.9306 174.211 32.8071 173.483 32.8071C172.796 32.8071 172.229 32.9106 171.782 33.1174C171.335 33.3243 171.001 33.6046 170.781 33.9583C170.567 34.3119 170.46 34.7157 170.46 35.1694C170.46 35.4764 170.524 35.7567 170.651 36.0103C170.784 36.2572 170.988 36.4874 171.261 36.7009C171.542 36.9145 171.895 37.1113 172.322 37.2915C172.756 37.4717 173.273 37.6452 173.874 37.812C174.701 38.0456 175.415 38.3058 176.016 38.5928C176.616 38.8797 177.11 39.2034 177.497 39.5637C177.891 39.9174 178.181 40.3211 178.368 40.7749C178.562 41.222 178.658 41.7292 178.658 42.2964C178.658 42.8903 178.538 43.4275 178.298 43.908C178.058 44.3884 177.714 44.7988 177.267 45.1392C176.82 45.4795 176.283 45.7431 175.656 45.9299C175.035 46.1101 174.341 46.2002 173.573 46.2002C172.899 46.2002 172.236 46.1068 171.582 45.9199C170.934 45.7331 170.344 45.4528 169.81 45.0791C169.283 44.7054 168.859 44.245 168.539 43.6978C168.225 43.1439 168.068 42.5033 168.068 41.7759H169.99C169.99 42.2764 170.087 42.7068 170.28 43.0671C170.474 43.4208 170.737 43.7144 171.071 43.948C171.411 44.1816 171.795 44.3551 172.222 44.4685C172.656 44.5753 173.106 44.6287 173.573 44.6287C174.247 44.6287 174.818 44.5352 175.285 44.3484C175.752 44.1615 176.106 43.8946 176.346 43.5476C176.593 43.2006 176.717 42.7902 176.717 42.3164ZM188.888 42.3164C188.888 41.9761 188.835 41.6758 188.728 41.4155C188.628 41.1486 188.448 40.9084 188.188 40.6948C187.934 40.4813 187.58 40.2778 187.127 40.0842C186.68 39.8907 186.112 39.6938 185.425 39.4937C184.704 39.2801 184.054 39.0432 183.473 38.783C182.893 38.516 182.395 38.2124 181.982 37.8721C181.568 37.5317 181.251 37.1414 181.031 36.7009C180.811 36.2605 180.7 35.7567 180.7 35.1895C180.7 34.6222 180.817 34.0984 181.051 33.6179C181.284 33.1375 181.618 32.7204 182.052 32.3667C182.492 32.0063 183.016 31.7261 183.623 31.5259C184.231 31.3257 184.908 31.2256 185.655 31.2256C186.75 31.2256 187.677 31.4358 188.438 31.8562C189.205 32.2699 189.789 32.8138 190.19 33.4878C190.59 34.1551 190.79 34.8691 190.79 35.6299H188.868C188.868 35.0827 188.752 34.5989 188.518 34.1785C188.285 33.7514 187.931 33.4177 187.457 33.1775C186.983 32.9306 186.383 32.8071 185.655 32.8071C184.968 32.8071 184.401 32.9106 183.954 33.1174C183.507 33.3243 183.173 33.6046 182.953 33.9583C182.739 34.3119 182.632 34.7157 182.632 35.1694C182.632 35.4764 182.696 35.7567 182.823 36.0103C182.956 36.2572 183.16 36.4874 183.433 36.7009C183.713 36.9145 184.067 37.1113 184.494 37.2915C184.928 37.4717 185.445 37.6452 186.046 37.812C186.873 38.0456 187.587 38.3058 188.188 38.5928C188.788 38.8797 189.282 39.2034 189.669 39.5637C190.063 39.9174 190.353 40.3211 190.54 40.7749C190.734 41.222 190.83 41.7292 190.83 42.2964C190.83 42.8903 190.71 43.4275 190.47 43.908C190.23 44.3884 189.886 44.7988 189.439 45.1392C188.992 45.4795 188.455 45.7431 187.827 45.9299C187.207 46.1101 186.513 46.2002 185.745 46.2002C185.071 46.2002 184.407 46.1068 183.753 45.9199C183.106 45.7331 182.516 45.4528 181.982 45.0791C181.455 44.7054 181.031 44.245 180.71 43.6978C180.397 43.1439 180.24 42.5033 180.24 41.7759H182.162C182.162 42.2764 182.259 42.7068 182.452 43.0671C182.646 43.4208 182.909 43.7144 183.243 43.948C183.583 44.1816 183.967 44.3551 184.394 44.4685C184.828 44.5753 185.278 44.6287 185.745 44.6287C186.419 44.6287 186.99 44.5352 187.457 44.3484C187.924 44.1615 188.278 43.8946 188.518 43.5476C188.765 43.2006 188.888 42.7902 188.888 42.3164ZM198.688 32.717L193.863 46H191.891L197.447 31.4258H198.718L198.688 32.717ZM202.732 46L197.897 32.717L197.867 31.4258H199.138L204.714 46H202.732ZM202.482 40.6047V42.1863H194.294V40.6047H202.482ZM206.666 31.4258H211.49C212.585 31.4258 213.509 31.5926 214.263 31.9263C215.024 32.2599 215.601 32.7537 215.995 33.4077C216.395 34.055 216.595 34.8525 216.595 35.8C216.595 36.4674 216.459 37.078 216.185 37.6318C215.918 38.179 215.531 38.6462 215.024 39.0332C214.523 39.4136 213.923 39.6972 213.222 39.884L212.682 40.0942H208.147L208.127 38.5227H211.551C212.245 38.5227 212.822 38.4026 213.282 38.1624C213.743 37.9154 214.09 37.5851 214.323 37.1714C214.557 36.7576 214.674 36.3005 214.674 35.8C214.674 35.2395 214.563 34.749 214.343 34.3286C214.123 33.9082 213.776 33.5846 213.302 33.3577C212.835 33.1241 212.231 33.0073 211.49 33.0073H208.598V46H206.666V31.4258ZM215.184 46L211.641 39.3936L213.653 39.3835L217.246 45.8799V46H215.184ZM228.327 46H225.284L225.304 44.4285H228.327C229.368 44.4285 230.235 44.2116 230.929 43.7778C231.623 43.3374 232.144 42.7235 232.491 41.936C232.845 41.1419 233.021 40.2144 233.021 39.1533V38.2625C233.021 37.4283 232.921 36.6876 232.721 36.0403C232.521 35.3863 232.227 34.8358 231.84 34.3887C231.453 33.9349 230.979 33.5912 230.419 33.3577C229.865 33.1241 229.228 33.0073 228.507 33.0073H225.224V31.4258H228.507C229.461 31.4258 230.332 31.5859 231.12 31.9062C231.907 32.2199 232.584 32.677 233.152 33.2776C233.726 33.8715 234.166 34.5922 234.473 35.4397C234.78 36.2805 234.933 37.2281 234.933 38.2825V39.1533C234.933 40.2077 234.78 41.1586 234.473 42.0061C234.166 42.8469 233.722 43.5643 233.142 44.1582C232.568 44.7521 231.874 45.2092 231.06 45.5295C230.252 45.8432 229.341 46 228.327 46ZM226.315 31.4258V46H224.383V31.4258H226.315ZM247.095 44.4285V46H239.378V44.4285H247.095ZM239.768 31.4258V46H237.836V31.4258H239.768ZM246.074 37.6919V39.2634H239.378V37.6919H246.074ZM246.995 31.4258V33.0073H239.378V31.4258H246.995ZM257.255 42.3164C257.255 41.9761 257.202 41.6758 257.095 41.4155C256.995 41.1486 256.815 40.9084 256.554 40.6948C256.301 40.4813 255.947 40.2778 255.493 40.0842C255.046 39.8907 254.479 39.6938 253.792 39.4937C253.071 39.2801 252.42 39.0432 251.84 38.783C251.259 38.516 250.762 38.2124 250.348 37.8721C249.935 37.5317 249.618 37.1414 249.397 36.7009C249.177 36.2605 249.067 35.7567 249.067 35.1895C249.067 34.6222 249.184 34.0984 249.417 33.6179C249.651 33.1375 249.985 32.7204 250.418 32.3667C250.859 32.0063 251.383 31.7261 251.99 31.5259C252.597 31.3257 253.275 31.2256 254.022 31.2256C255.116 31.2256 256.044 31.4358 256.805 31.8562C257.572 32.2699 258.156 32.8138 258.556 33.4878C258.957 34.1551 259.157 34.8691 259.157 35.6299H257.235C257.235 35.0827 257.118 34.5989 256.885 34.1785C256.651 33.7514 256.298 33.4177 255.824 33.1775C255.35 32.9306 254.749 32.8071 254.022 32.8071C253.335 32.8071 252.767 32.9106 252.32 33.1174C251.873 33.3243 251.54 33.6046 251.319 33.9583C251.106 34.3119 250.999 34.7157 250.999 35.1694C250.999 35.4764 251.062 35.7567 251.189 36.0103C251.323 36.2572 251.526 36.4874 251.8 36.7009C252.08 36.9145 252.434 37.1113 252.861 37.2915C253.295 37.4717 253.812 37.6452 254.412 37.812C255.24 38.0456 255.954 38.3058 256.554 38.5928C257.155 38.8797 257.649 39.2034 258.036 39.5637C258.43 39.9174 258.72 40.3211 258.907 40.7749C259.1 41.222 259.197 41.7292 259.197 42.2964C259.197 42.8903 259.077 43.4275 258.837 43.908C258.596 44.3884 258.253 44.7988 257.806 45.1392C257.359 45.4795 256.821 45.7431 256.194 45.9299C255.573 46.1101 254.879 46.2002 254.112 46.2002C253.438 46.2002 252.774 46.1068 252.12 45.9199C251.473 45.7331 250.882 45.4528 250.348 45.0791C249.821 44.7054 249.397 44.245 249.077 43.6978C248.764 43.1439 248.607 42.5033 248.607 41.7759H250.529C250.529 42.2764 250.625 42.7068 250.819 43.0671C251.012 43.4208 251.276 43.7144 251.61 43.948C251.95 44.1816 252.334 44.3551 252.761 44.4685C253.194 44.5753 253.645 44.6287 254.112 44.6287C254.786 44.6287 255.357 44.5352 255.824 44.3484C256.291 44.1615 256.645 43.8946 256.885 43.5476C257.132 43.2006 257.255 42.7902 257.255 42.3164ZM267.055 32.717L262.23 46H260.258L265.813 31.4258H267.085L267.055 32.717ZM271.099 46L266.264 32.717L266.234 31.4258H267.505L273.081 46H271.099ZM270.848 40.6047V42.1863H262.66V40.6047H270.848ZM276.964 31.4258V46H275.032V31.4258H276.964ZM283.07 37.9822V39.5637H276.544V37.9822H283.07ZM284.061 31.4258V33.0073H276.544V31.4258H284.061ZM288.436 31.4258V46H286.504V31.4258H288.436ZM303.17 38.2524V39.1733C303.17 40.2677 303.033 41.2487 302.76 42.1162C302.486 42.9837 302.092 43.7211 301.578 44.3284C301.065 44.9356 300.447 45.3994 299.727 45.7197C299.013 46.04 298.212 46.2002 297.324 46.2002C296.463 46.2002 295.673 46.04 294.952 45.7197C294.238 45.3994 293.617 44.9356 293.09 44.3284C292.57 43.7211 292.166 42.9837 291.879 42.1162C291.592 41.2487 291.448 40.2677 291.448 39.1733V38.2524C291.448 37.158 291.589 36.1804 291.869 35.3196C292.156 34.4521 292.56 33.7147 293.08 33.1074C293.601 32.4935 294.218 32.0264 294.932 31.7061C295.653 31.3857 296.443 31.2256 297.304 31.2256C298.192 31.2256 298.993 31.3857 299.707 31.7061C300.427 32.0264 301.045 32.4935 301.558 33.1074C302.079 33.7147 302.476 34.4521 302.75 35.3196C303.03 36.1804 303.17 37.158 303.17 38.2524ZM301.258 39.1733V38.2324C301.258 37.3649 301.168 36.5975 300.988 35.9302C300.814 35.2629 300.557 34.7023 300.217 34.2485C299.877 33.7948 299.46 33.4511 298.966 33.2175C298.479 32.984 297.925 32.8672 297.304 32.8672C296.704 32.8672 296.16 32.984 295.673 33.2175C295.192 33.4511 294.778 33.7948 294.431 34.2485C294.091 34.7023 293.827 35.2629 293.641 35.9302C293.454 36.5975 293.36 37.3649 293.36 38.2324V39.1733C293.36 40.0475 293.454 40.8216 293.641 41.4956C293.827 42.1629 294.094 42.7268 294.441 43.1873C294.795 43.641 295.212 43.9847 295.693 44.2183C296.18 44.4518 296.724 44.5686 297.324 44.5686C297.951 44.5686 298.509 44.4518 298.996 44.2183C299.483 43.9847 299.893 43.641 300.227 43.1873C300.567 42.7268 300.824 42.1629 300.998 41.4956C301.171 40.8216 301.258 40.0475 301.258 39.1733Z" fill="#C9D1D9"/>
<path d="M113 39V45C113 45.5304 112.789 46.0391 112.414 46.4142C112.039 46.7893 111.53 47 111 47H100C99.4696 47 98.9609 46.7893 98.5858 46.4142C98.2107 46.0391 98 45.5304 98 45V34C98 33.4696 98.2107 32.9609 98.5858 32.5858C98.9609 32.2107 99.4696 32 100 32H106" stroke="#C9D1D9" stroke-width="2" stroke-linecap="round" stroke-linejoin="round"/>
<path d="M110 29H116V35" stroke="#C9D1D9" stroke-width="2" stroke-linecap="round" stroke-linejoin="round"/>
<path d="M105 40L116 29" stroke="#C9D1D9" stroke-width="2" stroke-linecap="round" stroke-linejoin="round"/>
<path d="M691.45 35.0197C691.436 35.033 691.419 35.0432 691.401 35.0498C691.383 35.0564 691.363 35.0593 691.344 35.0582H687.987C687.955 35.0582 687.938 35.0743 687.938 35.1065V37.1611C687.938 37.1933 687.955 37.2094 687.987 37.2094H690.273C690.318 37.2094 690.353 37.2224 690.379 37.2479C690.405 37.2739 690.417 37.3093 690.417 37.354V37.8651C690.418 37.8845 690.416 37.9039 690.409 37.9222C690.402 37.9404 690.392 37.9571 690.379 37.9712C690.365 37.9845 690.348 37.9948 690.33 38.0014C690.312 38.0081 690.292 38.0109 690.273 38.0097H687.987C687.955 38.0097 687.938 38.0258 687.938 38.0581V40.865C687.94 40.8844 687.937 40.9038 687.93 40.9221C687.924 40.9403 687.913 40.957 687.9 40.9711C687.886 40.9844 687.869 40.9947 687.851 41.0013C687.833 41.0079 687.814 41.0107 687.794 41.0096H687.157C687.138 41.0107 687.118 41.0079 687.1 41.0013C687.082 40.9947 687.065 40.9844 687.051 40.9711C687.038 40.9569 687.027 40.9402 687.021 40.922C687.014 40.9037 687.012 40.8844 687.013 40.865V34.4014C687.013 34.3567 687.025 34.3213 687.051 34.2953C687.065 34.2821 687.082 34.2719 687.1 34.2653C687.118 34.2587 687.138 34.2558 687.157 34.2569H691.344C691.389 34.2569 691.424 34.2699 691.45 34.2953C691.464 34.3096 691.474 34.3263 691.48 34.3445C691.487 34.3627 691.49 34.3821 691.489 34.4014V34.9126C691.49 34.9321 691.487 34.9517 691.481 34.9701C691.474 34.9885 691.464 35.0053 691.45 35.0197V35.0197ZM695.087 36.158C695.158 36.1965 695.184 36.2578 695.164 36.3415L695.029 36.9687C695.022 37.0331 694.991 37.0654 694.932 37.0654C694.906 37.0663 694.88 37.063 694.855 37.0555C694.749 37.0218 694.639 37.0055 694.527 37.0071C694.479 37.0061 694.43 37.0094 694.382 37.017C694.08 37.03 693.831 37.1345 693.634 37.3311C693.438 37.5271 693.341 37.783 693.341 38.0981V40.8666C693.342 40.886 693.339 40.9054 693.332 40.9236C693.326 40.9419 693.316 40.9586 693.302 40.9727C693.288 40.9859 693.271 40.9962 693.253 41.0028C693.235 41.0094 693.215 41.0123 693.196 41.0111H692.559C692.54 41.0123 692.52 41.0095 692.502 41.0029C692.484 40.9963 692.468 40.986 692.454 40.9727C692.427 40.9472 692.415 40.9118 692.415 40.8666V36.2448C692.415 36.2001 692.427 36.1647 692.454 36.1393C692.468 36.1259 692.484 36.1157 692.502 36.109C692.52 36.1024 692.54 36.0996 692.559 36.1008H693.196C693.241 36.1008 693.276 36.1133 693.302 36.1393C693.328 36.1647 693.341 36.2001 693.341 36.2448V36.6889C693.341 36.7149 693.345 36.7295 693.355 36.7326C693.365 36.7357 693.376 36.7274 693.389 36.7081C693.678 36.2708 694.07 36.0524 694.566 36.0524C694.759 36.0524 694.933 36.0873 695.087 36.158ZM696.925 40.7262C696.574 40.4849 696.328 40.149 696.187 39.7179C696.071 39.3711 696.013 38.9785 696.013 38.5411C696.013 38.0846 696.067 37.6987 696.177 37.3831C696.318 36.9588 696.566 36.626 696.919 36.3847C697.273 36.1434 697.694 36.0233 698.183 36.0233C698.647 36.0233 699.05 36.1434 699.395 36.3847C699.738 36.626 699.984 36.9557 700.132 37.3732C700.248 37.7013 700.306 38.0872 700.306 38.5313C700.306 38.9811 700.248 39.3768 700.132 39.7174C699.991 40.1485 699.746 40.4849 699.399 40.7257C699.052 40.9669 698.643 41.0871 698.174 41.0871C697.692 41.0876 697.275 40.9675 696.925 40.7262V40.7262ZM698.849 40.0699C699.042 39.9254 699.18 39.721 699.264 39.4569C699.335 39.2125 699.37 38.9103 699.37 38.5505C699.37 38.1907 699.338 37.8911 699.273 37.653C699.19 37.3893 699.051 37.1855 698.858 37.0404C698.665 36.8953 698.43 36.8231 698.154 36.8231C697.89 36.8231 697.663 36.8959 697.47 37.0404C697.277 37.185 697.138 37.3893 697.055 37.653C696.984 37.8781 696.949 38.1771 696.949 38.5505C696.949 38.9233 696.984 39.226 697.055 39.4569C697.131 39.721 697.269 39.9249 697.465 40.0699C697.661 40.215 697.897 40.2868 698.174 40.2868C698.417 40.2917 698.654 40.2154 698.849 40.0699ZM705.197 36.4908C705.506 36.7965 705.66 37.2094 705.66 37.7305V40.8655C705.661 40.8849 705.658 40.9043 705.652 40.9225C705.645 40.9408 705.635 40.9575 705.622 40.9716C705.607 40.9849 705.59 40.9952 705.572 41.0018C705.554 41.0084 705.534 41.0113 705.515 41.0101H704.878C704.859 41.0113 704.84 41.0085 704.821 41.0019C704.803 40.9953 704.786 40.985 704.772 40.9716C704.759 40.9575 704.749 40.9408 704.742 40.9226C704.735 40.9043 704.733 40.8849 704.734 40.8655V37.914C704.734 37.5927 704.64 37.3321 704.454 37.1325C704.268 36.9333 704.02 36.8335 703.711 36.8335C703.435 36.8335 703.201 36.9156 703.012 37.0799C702.822 37.2437 702.711 37.4642 702.679 37.7409V40.8666C702.68 40.8859 702.677 40.9053 702.67 40.9236C702.664 40.9418 702.654 40.9585 702.64 40.9727C702.626 40.986 702.609 40.9963 702.591 41.0029C702.573 41.0095 702.553 41.0123 702.534 41.0111H701.897C701.877 41.0123 701.858 41.0095 701.84 41.0029C701.822 40.9963 701.805 40.986 701.791 40.9727C701.778 40.9586 701.768 40.9419 701.761 40.9236C701.754 40.9054 701.751 40.886 701.753 40.8666V36.2448C701.753 36.2001 701.765 36.1647 701.791 36.1393C701.805 36.1259 701.822 36.1157 701.84 36.109C701.858 36.1024 701.877 36.0996 701.897 36.1008H702.534C702.579 36.1008 702.614 36.1133 702.64 36.1393C702.654 36.1533 702.664 36.17 702.67 36.1881C702.677 36.2062 702.68 36.2255 702.679 36.2448V36.5152C702.679 36.5345 702.685 36.5475 702.698 36.5537C702.71 36.5605 702.72 36.5573 702.727 36.5438C702.997 36.2032 703.402 36.0332 703.942 36.0332C704.47 36.0332 704.888 36.1855 705.197 36.4908V36.4908ZM709.605 36.8236C709.591 36.8369 709.574 36.8471 709.556 36.8537C709.538 36.8603 709.519 36.8632 709.499 36.8621H708.515C708.483 36.8621 708.467 36.8782 708.467 36.9104V39.4283C708.467 39.7049 708.526 39.9009 708.645 40.0169C708.764 40.1329 708.956 40.1906 709.219 40.1906H709.451C709.496 40.1906 709.531 40.2036 709.557 40.2291C709.57 40.2433 709.58 40.26 709.587 40.2782C709.593 40.2964 709.596 40.3158 709.595 40.3351V40.8369C709.595 40.9274 709.547 40.9784 709.451 40.9914L709.055 41.0013C708.56 41.0013 708.19 40.9144 707.946 40.7407C707.701 40.5671 707.579 40.2426 707.579 39.7663V36.9104C707.579 36.8782 707.563 36.8621 707.53 36.8621H707C706.981 36.8632 706.961 36.8604 706.943 36.8538C706.925 36.8472 706.908 36.8369 706.894 36.8236C706.881 36.8095 706.87 36.7928 706.864 36.7745C706.857 36.7563 706.854 36.7369 706.855 36.7175V36.2448C706.855 36.2001 706.868 36.1647 706.894 36.1393C706.908 36.126 706.925 36.1157 706.943 36.1091C706.961 36.1025 706.981 36.0996 707 36.1008H707.53C707.563 36.1008 707.579 36.0847 707.579 36.0524V34.9719C707.579 34.9266 707.592 34.8918 707.618 34.8658C707.632 34.8525 707.648 34.8422 707.667 34.8356C707.685 34.8289 707.704 34.8261 707.723 34.8273H708.321C708.367 34.8273 708.401 34.8398 708.428 34.8658C708.453 34.8918 708.466 34.9266 708.466 34.9719V36.0524C708.466 36.0847 708.482 36.1008 708.514 36.1008H709.499C709.543 36.1008 709.579 36.1133 709.605 36.1393C709.631 36.1647 709.643 36.2001 709.643 36.2448V36.7175C709.645 36.7369 709.642 36.7563 709.635 36.7745C709.629 36.7928 709.619 36.8095 709.605 36.8236V36.8236ZM714.091 39.6888C714.123 39.6311 714.159 39.6019 714.197 39.6019C714.23 39.6019 714.258 39.6118 714.284 39.6311L714.68 39.8723C714.731 39.9046 714.757 39.9467 714.757 39.9977L714.738 40.0746C714.567 40.3871 714.311 40.6447 713.999 40.8177C713.682 40.9981 713.31 41.0881 712.885 41.0881C712.428 41.0881 712.042 40.9872 711.727 40.7844C711.412 40.5816 711.174 40.2909 711.013 39.9108C710.852 39.5187 710.772 39.0585 710.772 38.5318C710.772 38.0622 710.807 37.7055 710.878 37.4606C710.994 37.0165 711.225 36.6665 711.572 36.4091C711.92 36.1523 712.341 36.0238 712.837 36.0238C713.448 36.0238 713.913 36.1829 714.235 36.5012C714.557 36.8194 714.766 37.2812 714.862 37.8854C714.894 38.1236 714.917 38.4132 714.93 38.7538C714.93 38.8505 714.881 38.8984 714.785 38.8984H711.737C711.705 38.8984 711.688 38.914 711.688 38.9467C711.701 39.1911 711.724 39.3648 711.756 39.4673C711.827 39.7247 711.969 39.9275 712.181 40.0751C712.393 40.2233 712.656 40.2972 712.972 40.2972C713.493 40.2904 713.866 40.0876 714.091 39.6888V39.6888ZM712.147 37.0264C711.97 37.1616 711.85 37.3483 711.786 37.5859C711.735 37.7618 711.706 37.9432 711.699 38.1262C711.699 38.1584 711.715 38.1745 711.747 38.1745H713.937C713.97 38.1745 713.986 38.1584 713.986 38.1262C713.973 37.914 713.953 37.7565 713.928 37.6535C713.872 37.4158 713.738 37.2037 713.547 37.0508C713.358 36.8995 713.121 36.8236 712.838 36.8236C712.555 36.8236 712.324 36.8912 712.147 37.0264V37.0264ZM719.782 36.4908C720.091 36.7965 720.245 37.2094 720.245 37.7305V40.8655C720.247 40.8849 720.244 40.9043 720.237 40.9226C720.231 40.9408 720.22 40.9575 720.207 40.9716C720.193 40.9849 720.176 40.9952 720.158 41.0018C720.14 41.0085 720.121 41.0113 720.101 41.0101H719.464C719.445 41.0112 719.426 41.0084 719.407 41.0018C719.389 40.9952 719.372 40.9849 719.358 40.9716C719.345 40.9575 719.335 40.9408 719.328 40.9226C719.321 40.9043 719.319 40.8849 719.32 40.8655V37.914C719.32 37.5927 719.226 37.3321 719.04 37.1325C718.853 36.9333 718.606 36.8335 718.297 36.8335C718.02 36.8335 717.788 36.9156 717.598 37.0799C717.407 37.2443 717.297 37.4642 717.264 37.7409V40.8666C717.266 40.886 717.263 40.9054 717.256 40.9236C717.249 40.9419 717.239 40.9586 717.226 40.9727C717.212 40.986 717.195 40.9963 717.177 41.0029C717.159 41.0095 717.14 41.0123 717.12 41.0111H716.483C716.464 41.0123 716.444 41.0096 716.426 41.0029C716.408 40.9963 716.391 40.986 716.377 40.9727C716.364 40.9586 716.354 40.9419 716.347 40.9236C716.34 40.9054 716.337 40.886 716.339 40.8666V36.2448C716.339 36.2001 716.351 36.1647 716.377 36.1393C716.391 36.1259 716.408 36.1156 716.426 36.109C716.444 36.1024 716.464 36.0996 716.483 36.1008H717.12C717.165 36.1008 717.2 36.1133 717.226 36.1393C717.252 36.1647 717.264 36.2001 717.264 36.2448V36.5152C717.264 36.5345 717.271 36.5475 717.284 36.5537C717.297 36.5605 717.306 36.5573 717.313 36.5438C717.584 36.2032 717.989 36.0332 718.528 36.0332C719.056 36.0332 719.474 36.1855 719.782 36.4908V36.4908ZM724.838 34.2964C724.852 34.2832 724.869 34.273 724.887 34.2663C724.905 34.2597 724.924 34.2569 724.944 34.2579H725.581C725.6 34.2569 725.619 34.2598 725.638 34.2664C725.656 34.2731 725.673 34.2832 725.687 34.2964C725.713 34.3224 725.725 34.3577 725.725 34.4025V40.8661C725.726 40.8854 725.724 40.9049 725.717 40.9231C725.71 40.9414 725.7 40.958 725.687 40.9721C725.673 40.9854 725.656 40.9957 725.638 41.0023C725.619 41.0089 725.6 41.0117 725.581 41.0106H724.944C724.924 41.0118 724.905 41.009 724.887 41.0024C724.869 40.9957 724.852 40.9855 724.838 40.9721C724.812 40.9467 724.8 40.9113 724.8 40.8661V40.6154C724.8 40.5962 724.792 40.5832 724.78 40.5769C724.767 40.5707 724.754 40.5738 724.742 40.5868C724.6 40.748 724.434 40.8718 724.245 40.9586C724.055 41.0449 723.848 41.0886 723.623 41.0886C723.16 41.0886 722.775 40.9742 722.47 40.7465C722.164 40.5182 721.941 40.1947 721.8 39.7767C721.684 39.4553 721.626 39.044 721.626 38.5422C721.626 38.0726 721.674 37.6837 721.77 37.3748C721.905 36.9505 722.128 36.6192 722.44 36.3811C722.752 36.1434 723.146 36.0243 723.622 36.0243C723.848 36.0243 724.055 36.0659 724.244 36.1497C724.434 36.2329 724.599 36.3556 724.741 36.5157C724.753 36.5287 724.767 36.5334 724.78 36.5303C724.792 36.5272 724.799 36.5157 724.799 36.4965V34.4035C724.8 34.3577 724.812 34.3219 724.838 34.2964ZM724.789 38.5505C724.789 38.0227 724.706 37.6114 724.539 37.3155C724.352 36.9874 724.079 36.8236 723.719 36.8236C723.346 36.8236 723.06 36.978 722.861 37.2869C722.655 37.6088 722.552 38.0331 722.552 38.5604C722.552 39.0554 722.632 39.4543 722.793 39.7564C722.979 40.1105 723.288 40.2873 723.719 40.2873C724.086 40.2873 724.365 40.1136 724.558 39.7663C724.712 39.4829 724.789 39.0778 724.789 38.5505V38.5505ZM729.661 40.9721C729.648 40.958 729.637 40.9414 729.631 40.9231C729.624 40.9049 729.621 40.8854 729.623 40.8661V34.4025C729.623 34.3577 729.635 34.3224 729.661 34.2964C729.675 34.2832 729.692 34.273 729.71 34.2663C729.728 34.2597 729.747 34.2569 729.767 34.2579H730.414C730.49 34.2579 730.549 34.2901 730.587 34.3546L732.208 36.9401C732.227 36.9785 732.246 36.9785 732.265 36.9401L733.896 34.3546C733.913 34.3241 733.939 34.2988 733.969 34.2818C734 34.2647 734.035 34.2564 734.07 34.2579H734.716C734.735 34.2569 734.754 34.2598 734.772 34.2664C734.791 34.2731 734.807 34.2832 734.822 34.2964C734.848 34.3224 734.86 34.3577 734.86 34.4025V40.8661C734.861 40.8854 734.858 40.9049 734.852 40.9231C734.845 40.9414 734.835 40.958 734.822 40.9721C734.807 40.9854 734.791 40.9957 734.772 41.0023C734.754 41.0089 734.735 41.0117 734.716 41.0106H734.079C734.059 41.0118 734.04 41.009 734.022 41.0024C734.004 40.9957 733.987 40.9855 733.973 40.9721C733.946 40.9467 733.934 40.9113 733.934 40.8661V35.9656C733.934 35.9396 733.927 35.9255 733.915 35.9219C733.902 35.9188 733.889 35.9271 733.877 35.9463L732.565 38.0877C732.548 38.1183 732.522 38.1435 732.492 38.1606C732.461 38.1777 732.426 38.1859 732.391 38.1844H732.082C732.047 38.1859 732.012 38.1777 731.982 38.1606C731.951 38.1435 731.926 38.1183 731.909 38.0877L730.606 35.9463C730.593 35.9271 730.58 35.9188 730.568 35.9219C730.555 35.9255 730.549 35.9396 730.549 35.9656V40.8661C730.55 40.8854 730.547 40.9048 730.54 40.923C730.534 40.9413 730.524 40.958 730.51 40.9721C730.496 40.9854 730.479 40.9956 730.461 41.0023C730.443 41.0089 730.423 41.0117 730.404 41.0106H729.767C729.747 41.0117 729.728 41.0088 729.71 41.0022C729.692 40.9956 729.675 40.9853 729.661 40.9721V40.9721ZM739.752 39.6888C739.784 39.6311 739.82 39.6019 739.858 39.6019C739.89 39.6018 739.92 39.612 739.945 39.6311L740.34 39.8723C740.392 39.9046 740.417 39.9467 740.417 39.9977L740.398 40.0746C740.227 40.3869 739.971 40.6445 739.66 40.8177C739.342 40.9981 738.971 41.0881 738.546 41.0881C738.089 41.0881 737.703 40.9872 737.388 40.7844C737.073 40.5816 736.834 40.2909 736.674 39.9108C736.513 39.5187 736.433 39.0585 736.433 38.5318C736.433 38.0622 736.468 37.7055 736.539 37.4606C736.655 37.0165 736.886 36.6665 737.233 36.4091C737.581 36.1523 738.002 36.0238 738.497 36.0238C739.108 36.0238 739.574 36.1829 739.896 36.5012C740.217 36.8194 740.427 37.2812 740.523 37.8854C740.559 38.1737 740.582 38.4635 740.59 38.7538C740.59 38.8505 740.542 38.8984 740.446 38.8984H737.398C737.365 38.8984 737.349 38.914 737.349 38.9467C737.362 39.1911 737.385 39.3648 737.417 39.4673C737.488 39.7247 737.629 39.9275 737.841 40.0751C738.053 40.2233 738.317 40.2972 738.632 40.2972C739.153 40.2904 739.527 40.0876 739.752 39.6888V39.6888ZM737.807 37.0264C737.631 37.1616 737.51 37.3483 737.446 37.5859C737.395 37.7618 737.366 37.9432 737.359 38.1262C737.359 38.1584 737.375 38.1745 737.408 38.1745H739.597C739.63 38.1745 739.646 38.1584 739.646 38.1262C739.633 37.914 739.614 37.7565 739.588 37.6535C739.532 37.4158 739.398 37.2038 739.207 37.0508C739.018 36.8995 738.781 36.8236 738.498 36.8236C738.215 36.8236 737.984 36.8912 737.807 37.0264V37.0264ZM745.443 36.4908C745.752 36.7965 745.906 37.2094 745.906 37.7305V40.8655C745.908 40.8849 745.905 40.9043 745.898 40.9226C745.892 40.9408 745.881 40.9575 745.868 40.9716C745.854 40.9849 745.837 40.9952 745.819 41.0018C745.801 41.0085 745.782 41.0113 745.762 41.0101H745.125C745.106 41.0112 745.087 41.0084 745.068 41.0018C745.05 40.9952 745.033 40.9849 745.019 40.9716C745.006 40.9575 744.996 40.9408 744.989 40.9226C744.982 40.9043 744.98 40.8849 744.981 40.8655V37.914C744.981 37.5927 744.887 37.3321 744.701 37.1325C744.514 36.9333 744.267 36.8335 743.958 36.8335C743.681 36.8335 743.449 36.9156 743.259 37.0799C743.068 37.2443 742.958 37.4642 742.925 37.7409V40.8666C742.926 40.886 742.924 40.9054 742.917 40.9236C742.91 40.9419 742.9 40.9586 742.887 40.9727C742.873 40.986 742.856 40.9963 742.838 41.0029C742.82 41.0095 742.801 41.0123 742.781 41.0111H742.144C742.125 41.0123 742.105 41.0096 742.087 41.0029C742.069 40.9963 742.052 40.986 742.038 40.9727C742.025 40.9586 742.014 40.9419 742.008 40.9236C742.001 40.9054 741.998 40.886 742 40.8666V36.2448C742 36.2001 742.012 36.1647 742.038 36.1393C742.052 36.1259 742.069 36.1156 742.087 36.109C742.105 36.1024 742.125 36.0996 742.144 36.1008H742.781C742.826 36.1008 742.861 36.1133 742.887 36.1393C742.913 36.1647 742.925 36.2001 742.925 36.2448V36.5152C742.925 36.5345 742.932 36.5475 742.945 36.5537C742.958 36.5605 742.967 36.5573 742.974 36.5438C743.245 36.2032 743.65 36.0332 744.189 36.0332C744.717 36.0332 745.135 36.1855 745.443 36.4908V36.4908ZM749.852 36.8236C749.838 36.8369 749.821 36.8472 749.803 36.8539C749.784 36.8605 749.765 36.8633 749.746 36.8621H748.762C748.73 36.8621 748.713 36.8782 748.713 36.9104V39.4283C748.713 39.7049 748.773 39.9009 748.892 40.0169C749.011 40.1329 749.202 40.1906 749.466 40.1906H749.697C749.717 40.1896 749.736 40.1925 749.754 40.1991C749.772 40.2057 749.789 40.2159 749.803 40.2291C749.829 40.2551 749.842 40.2904 749.842 40.3351V40.8369C749.842 40.9274 749.793 40.9784 749.697 40.9914L749.301 41.0013C748.806 41.0013 748.437 40.9144 748.192 40.7407C747.947 40.5671 747.825 40.2426 747.825 39.7663V36.9104C747.825 36.8782 747.81 36.8621 747.777 36.8621H747.246C747.227 36.8633 747.208 36.8605 747.189 36.8539C747.171 36.8472 747.154 36.8369 747.14 36.8236C747.127 36.8095 747.117 36.7928 747.11 36.7745C747.103 36.7563 747.101 36.7369 747.102 36.7175V36.2448C747.102 36.2001 747.114 36.1647 747.14 36.1393C747.154 36.1259 747.171 36.1156 747.189 36.109C747.208 36.1024 747.227 36.0996 747.246 36.1008H747.777C747.81 36.1008 747.825 36.0847 747.825 36.0524V34.9719C747.825 34.9266 747.838 34.8918 747.864 34.8658C747.878 34.8525 747.895 34.8422 747.913 34.8356C747.931 34.829 747.951 34.8261 747.97 34.8273H748.568C748.613 34.8273 748.648 34.8398 748.674 34.8658C748.7 34.8918 748.712 34.9266 748.712 34.9719V36.0524C748.712 36.0847 748.728 36.1008 748.761 36.1008H749.745C749.79 36.1008 749.826 36.1133 749.851 36.1393C749.864 36.1533 749.875 36.17 749.881 36.1881C749.888 36.2062 749.891 36.2255 749.89 36.2448V36.7175C749.891 36.7369 749.888 36.7563 749.882 36.7745C749.875 36.7928 749.865 36.8095 749.852 36.8236V36.8236ZM751.921 40.7262C751.57 40.4849 751.325 40.149 751.183 39.7179C751.067 39.3711 751.01 38.9785 751.01 38.5411C751.01 38.0846 751.064 37.6987 751.173 37.3831C751.314 36.9588 751.562 36.626 751.916 36.3847C752.27 36.1434 752.691 36.0233 753.18 36.0233C753.643 36.0233 754.046 36.1434 754.391 36.3847C754.734 36.626 754.981 36.9557 755.129 37.3732C755.245 37.7013 755.302 38.0872 755.302 38.5313C755.302 38.9811 755.245 39.3768 755.129 39.7174C754.987 40.1485 754.743 40.4849 754.396 40.7257C754.049 40.9669 753.64 41.0871 753.17 41.0871C752.688 41.0876 752.271 40.9675 751.921 40.7262V40.7262ZM753.845 40.0699C754.038 39.9254 754.176 39.721 754.261 39.4569C754.331 39.2125 754.366 38.9103 754.366 38.5505C754.366 38.1907 754.334 37.8911 754.27 37.653C754.186 37.3893 754.048 37.1855 753.855 37.0404C753.662 36.8953 753.427 36.8231 753.151 36.8231C752.887 36.8231 752.659 36.8959 752.466 37.0404C752.273 37.185 752.135 37.3893 752.051 37.653C751.981 37.8781 751.945 38.1771 751.945 38.5505C751.945 38.9233 751.981 39.226 752.051 39.4569C752.128 39.721 752.265 39.9249 752.461 40.0699C752.657 40.215 752.894 40.2868 753.17 40.2868C753.413 40.2917 753.651 40.2154 753.845 40.0699V40.0699ZM759.422 36.158C759.492 36.1965 759.518 36.2578 759.499 36.3415L759.364 36.9687C759.357 37.0331 759.325 37.0654 759.267 37.0654C759.241 37.0663 759.215 37.063 759.19 37.0555C759.084 37.0218 758.973 37.0055 758.862 37.0071C758.797 37.0071 758.749 37.0108 758.717 37.017C758.415 37.03 758.165 37.1345 757.969 37.3311C757.773 37.5271 757.675 37.783 757.675 38.0981V40.8666C757.676 40.886 757.673 40.9054 757.667 40.9236C757.66 40.9419 757.65 40.9586 757.637 40.9727C757.623 40.986 757.606 40.9963 757.588 41.0029C757.57 41.0095 757.55 41.0123 757.531 41.0111H756.894C756.875 41.0123 756.855 41.0096 756.837 41.0029C756.819 40.9963 756.802 40.986 756.788 40.9727C756.775 40.9586 756.764 40.9419 756.758 40.9236C756.751 40.9054 756.748 40.886 756.749 40.8666V36.2448C756.749 36.2001 756.762 36.1647 756.788 36.1393C756.802 36.1259 756.819 36.1156 756.837 36.109C756.855 36.1024 756.875 36.0996 756.894 36.1008H757.531C757.576 36.1008 757.611 36.1133 757.637 36.1393C757.663 36.1647 757.675 36.2001 757.675 36.2448V36.6889C757.675 36.7149 757.68 36.7295 757.69 36.7326C757.699 36.7357 757.71 36.7274 757.723 36.7081C758.013 36.2708 758.405 36.0524 758.9 36.0524C759.094 36.0524 759.267 36.0873 759.422 36.158Z" fill="#C9D1D9"/>
<path d="M681.876 39.3268C681.821 39.3269 681.767 39.3154 681.717 39.293L678.369 37.7939C678.3 37.763 678.242 37.713 678.201 37.6498C678.16 37.5866 678.138 37.513 678.138 37.4377C678.138 37.3624 678.16 37.2888 678.201 37.2256C678.242 37.1624 678.3 37.1123 678.369 37.0815L681.717 35.5875C681.811 35.5456 681.918 35.5428 682.015 35.5797C682.112 35.6166 682.19 35.6903 682.232 35.7846C682.274 35.8792 682.277 35.9865 682.24 36.0831C682.203 36.1797 682.129 36.2576 682.034 36.2999L679.484 37.4382L682.035 38.5806C682.116 38.617 682.183 38.6803 682.224 38.7599C682.264 38.8395 682.276 38.9306 682.257 39.0179C682.239 39.1053 682.191 39.1836 682.122 39.2399C682.052 39.2961 681.966 39.3268 681.876 39.3268V39.3268Z" fill="#C9D1D9"/>
<path d="M677.314 44.7655C673.633 44.7655 670.415 42.281 669.49 38.7231C669.464 38.6231 669.479 38.5168 669.531 38.4276C669.584 38.3384 669.669 38.2736 669.769 38.2476C669.869 38.2215 669.976 38.2363 670.065 38.2886C670.154 38.3409 670.219 38.4265 670.245 38.5266C670.653 40.0904 671.568 41.4748 672.848 42.4626C674.127 43.4505 675.697 43.9861 677.314 43.9855C677.417 43.9855 677.516 44.0266 677.59 44.0997C677.663 44.1729 677.704 44.2721 677.704 44.3755C677.704 44.479 677.663 44.5781 677.59 44.6513C677.516 44.7244 677.417 44.7655 677.314 44.7655V44.7655Z" fill="#C9D1D9"/>
<path d="M675.97 41.527C675.867 41.527 675.767 41.4859 675.694 41.4127C675.621 41.3396 675.58 41.2404 675.58 41.137V33.7233C675.58 33.6199 675.621 33.5207 675.694 33.4475C675.767 33.3744 675.867 33.3333 675.97 33.3333C676.074 33.3333 676.173 33.3744 676.246 33.4475C676.319 33.5207 676.36 33.6199 676.36 33.7233V41.137C676.36 41.2404 676.319 41.3396 676.246 41.4127C676.173 41.4859 676.074 41.527 675.97 41.527Z" fill="#C9D1D9"/>
<path d="M690.689 45.895C690.638 45.8951 690.587 45.8851 690.54 45.8654C690.493 45.8458 690.45 45.8169 690.414 45.7806L688.712 44.0781L687.01 45.7801C686.973 45.8163 686.93 45.845 686.883 45.8646C686.836 45.8842 686.785 45.8943 686.734 45.8943C686.683 45.8943 686.632 45.8842 686.585 45.8646C686.537 45.845 686.494 45.8163 686.458 45.7801C686.422 45.7438 686.393 45.7008 686.373 45.6535C686.354 45.6062 686.344 45.5554 686.344 45.5042C686.344 45.453 686.354 45.4022 686.373 45.3549C686.393 45.3076 686.422 45.2646 686.458 45.2283L688.436 43.2503C688.472 43.214 688.515 43.1853 688.562 43.1657C688.61 43.1461 688.66 43.136 688.712 43.136C688.763 43.136 688.814 43.1461 688.861 43.1657C688.908 43.1853 688.951 43.214 688.987 43.2503L690.965 45.2289C691.02 45.2834 691.057 45.353 691.072 45.4287C691.087 45.5044 691.08 45.583 691.05 45.6543C691.021 45.7257 690.97 45.7866 690.906 45.8295C690.842 45.8723 690.766 45.8951 690.689 45.895V45.895Z" fill="#C9D1D9"/>
<path d="M694.644 45.8949C694.593 45.895 694.542 45.8849 694.495 45.8653C694.448 45.8457 694.405 45.8169 694.369 45.7805L692.667 44.0781L690.965 45.78C690.929 45.8163 690.886 45.845 690.839 45.8646C690.791 45.8842 690.741 45.8943 690.689 45.8943C690.638 45.8943 690.587 45.8842 690.54 45.8646C690.493 45.845 690.45 45.8163 690.414 45.78C690.377 45.7438 690.349 45.7008 690.329 45.6535C690.309 45.6061 690.299 45.5554 690.299 45.5042C690.299 45.4529 690.309 45.4022 690.329 45.3549C690.349 45.3075 690.377 45.2645 690.414 45.2283L692.391 43.2502C692.466 43.1798 692.564 43.1406 692.667 43.1406C692.77 43.1406 692.868 43.1798 692.943 43.2502L694.921 45.2288C694.976 45.2834 695.013 45.353 695.028 45.4288C695.043 45.5046 695.035 45.5832 695.006 45.6545C694.976 45.7259 694.926 45.7869 694.862 45.8297C694.797 45.8725 694.722 45.8952 694.644 45.8949V45.8949Z" fill="#C9D1D9"/>
<path d="M698.6 45.895C698.549 45.8951 698.498 45.8851 698.451 45.8655C698.404 45.8458 698.361 45.817 698.324 45.7806L696.623 44.0781L694.921 45.7801C694.885 45.8163 694.842 45.8451 694.794 45.8647C694.747 45.8843 694.696 45.8944 694.645 45.8944C694.594 45.8944 694.543 45.8843 694.496 45.8647C694.448 45.8451 694.405 45.8163 694.369 45.7801C694.333 45.7439 694.304 45.7009 694.285 45.6535C694.265 45.6062 694.255 45.5555 694.255 45.5042C694.255 45.453 694.265 45.4023 694.285 45.3549C694.304 45.3076 694.333 45.2646 694.369 45.2284L696.347 43.2503C696.42 43.1773 696.52 43.1362 696.623 43.1362C696.726 43.1362 696.825 43.1773 696.899 43.2503L698.876 45.2289C698.931 45.2834 698.968 45.3529 698.983 45.4286C698.998 45.5043 698.991 45.5828 698.961 45.6541C698.932 45.7254 698.882 45.7864 698.817 45.8293C698.753 45.8722 698.678 45.895 698.6 45.895V45.895Z" fill="#C9D1D9"/>
<path d="M702.555 45.8949C702.504 45.895 702.453 45.8849 702.406 45.8653C702.359 45.8457 702.316 45.8168 702.28 45.7805L700.578 44.0781L698.876 45.78C698.84 45.8163 698.797 45.845 698.75 45.8646C698.702 45.8842 698.651 45.8943 698.6 45.8943C698.549 45.8943 698.498 45.8842 698.451 45.8646C698.404 45.845 698.361 45.8163 698.324 45.78C698.288 45.7438 698.259 45.7008 698.24 45.6535C698.22 45.6061 698.21 45.5554 698.21 45.5042C698.21 45.4529 698.22 45.4022 698.24 45.3549C698.259 45.3075 698.288 45.2645 698.324 45.2283L700.302 43.2502C700.377 43.1798 700.475 43.1406 700.578 43.1406C700.68 43.1406 700.779 43.1798 700.854 43.2502L702.832 45.2288C702.887 45.2834 702.924 45.3531 702.939 45.4289C702.954 45.5048 702.947 45.5834 702.917 45.6548C702.887 45.7262 702.837 45.7871 702.772 45.8299C702.708 45.8726 702.632 45.8953 702.555 45.8949V45.8949Z" fill="#C9D1D9"/>
<path d="M706.511 45.8949C706.46 45.895 706.409 45.8849 706.362 45.8653C706.315 45.8457 706.272 45.8169 706.236 45.7805L704.533 44.0781L702.832 45.78C702.796 45.8163 702.753 45.845 702.706 45.8646C702.658 45.8842 702.608 45.8943 702.556 45.8943C702.505 45.8943 702.454 45.8842 702.407 45.8646C702.36 45.845 702.317 45.8163 702.281 45.78C702.244 45.7438 702.216 45.7008 702.196 45.6535C702.176 45.6061 702.166 45.5554 702.166 45.5042C702.166 45.4529 702.176 45.4022 702.196 45.3549C702.216 45.3075 702.244 45.2645 702.281 45.2283L704.258 43.2502C704.333 43.1798 704.431 43.1406 704.534 43.1406C704.637 43.1406 704.735 43.1798 704.81 43.2502L706.788 45.2288C706.843 45.2834 706.88 45.353 706.895 45.4288C706.91 45.5046 706.902 45.5832 706.873 45.6545C706.843 45.7259 706.793 45.7869 706.728 45.8297C706.664 45.8725 706.589 45.8952 706.511 45.8949V45.8949Z" fill="#C9D1D9"/>
<path d="M710.466 45.8949C710.415 45.8951 710.364 45.885 710.317 45.8654C710.27 45.8458 710.227 45.8169 710.191 45.7805L708.489 44.0781L706.787 45.78C706.751 45.8163 706.708 45.845 706.661 45.8646C706.613 45.8842 706.563 45.8943 706.511 45.8943C706.46 45.8943 706.41 45.8842 706.362 45.8646C706.315 45.845 706.272 45.8163 706.236 45.78C706.199 45.7438 706.171 45.7008 706.151 45.6535C706.131 45.6061 706.121 45.5554 706.121 45.5042C706.121 45.4529 706.131 45.4022 706.151 45.3549C706.171 45.3075 706.199 45.2645 706.236 45.2283L708.213 43.2502C708.288 43.1798 708.386 43.1406 708.489 43.1406C708.592 43.1406 708.69 43.1798 708.765 43.2502L710.743 45.2288C710.798 45.2834 710.835 45.353 710.85 45.4288C710.865 45.5046 710.857 45.5832 710.828 45.6545C710.798 45.7259 710.748 45.7869 710.684 45.8297C710.619 45.8725 710.544 45.8952 710.466 45.8949V45.8949Z" fill="#C9D1D9"/>
<path d="M714.422 45.8949C714.371 45.895 714.32 45.8849 714.273 45.8653C714.225 45.8457 714.183 45.8169 714.146 45.7805L712.444 44.0781L710.743 45.78C710.707 45.8163 710.664 45.845 710.616 45.8646C710.569 45.8842 710.518 45.8943 710.467 45.8943C710.416 45.8943 710.365 45.8842 710.318 45.8646C710.271 45.845 710.228 45.8163 710.191 45.78C710.155 45.7438 710.126 45.7008 710.107 45.6535C710.087 45.6061 710.077 45.5554 710.077 45.5042C710.077 45.4529 710.087 45.4022 710.107 45.3549C710.126 45.3075 710.155 45.2645 710.191 45.2283L712.169 43.2502C712.243 43.1798 712.342 43.1406 712.445 43.1406C712.547 43.1406 712.646 43.1798 712.721 43.2502L714.699 45.2288C714.753 45.2834 714.791 45.353 714.806 45.4288C714.821 45.5046 714.813 45.5832 714.783 45.6545C714.754 45.7259 714.704 45.7869 714.639 45.8297C714.575 45.8725 714.499 45.8952 714.422 45.8949V45.8949Z" fill="#C9D1D9"/>
<path d="M718.378 45.895C718.326 45.8951 718.276 45.8851 718.228 45.8655C718.181 45.8458 718.138 45.817 718.102 45.7806L716.4 44.0781L714.698 45.7801C714.662 45.8163 714.619 45.8451 714.572 45.8647C714.524 45.8843 714.473 45.8944 714.422 45.8944C714.371 45.8944 714.32 45.8843 714.273 45.8647C714.226 45.8451 714.183 45.8163 714.146 45.7801C714.11 45.7439 714.081 45.7009 714.062 45.6535C714.042 45.6062 714.032 45.5555 714.032 45.5042C714.032 45.453 714.042 45.4023 714.062 45.3549C714.081 45.3076 714.11 45.2646 714.146 45.2284L716.124 43.2503C716.198 43.1773 716.297 43.1362 716.4 43.1362C716.503 43.1362 716.603 43.1773 716.676 43.2503L718.653 45.2289C718.708 45.2834 718.745 45.3529 718.76 45.4286C718.775 45.5043 718.768 45.5828 718.738 45.6541C718.709 45.7254 718.659 45.7864 718.594 45.8293C718.53 45.8722 718.455 45.895 718.378 45.895V45.895Z" fill="#C9D1D9"/>
<path d="M722.332 45.895C722.281 45.895 722.23 45.885 722.183 45.8653C722.136 45.8457 722.093 45.8169 722.057 45.7806L720.355 44.0781L718.653 45.7801C718.617 45.8163 718.574 45.845 718.527 45.8646C718.479 45.8842 718.429 45.8943 718.377 45.8943C718.326 45.8943 718.275 45.8842 718.228 45.8646C718.181 45.845 718.138 45.8163 718.102 45.7801C718.065 45.7438 718.037 45.7008 718.017 45.6535C717.997 45.6062 717.987 45.5554 717.987 45.5042C717.987 45.453 717.997 45.4022 718.017 45.3549C718.037 45.3076 718.065 45.2646 718.102 45.2283L720.08 43.2503C720.116 43.214 720.159 43.1853 720.206 43.1657C720.253 43.1461 720.304 43.136 720.355 43.136C720.406 43.136 720.457 43.1461 720.504 43.1657C720.552 43.1853 720.595 43.214 720.631 43.2503L722.609 45.2289C722.664 45.2834 722.701 45.353 722.716 45.4288C722.731 45.5046 722.723 45.5832 722.694 45.6546C722.664 45.7259 722.614 45.7869 722.549 45.8297C722.485 45.8725 722.41 45.8952 722.332 45.895V45.895Z" fill="#C9D1D9"/>
<path d="M726.288 45.895C726.237 45.8951 726.186 45.885 726.139 45.8654C726.092 45.8457 726.049 45.8169 726.013 45.7806L724.311 44.0781L722.609 45.7801C722.536 45.8532 722.437 45.8944 722.334 45.8944C722.23 45.8944 722.131 45.8532 722.058 45.7801C721.985 45.7069 721.943 45.6077 721.943 45.5042C721.943 45.4008 721.985 45.3015 722.058 45.2284L724.035 43.2503C724.108 43.1773 724.207 43.1362 724.311 43.1362C724.414 43.1362 724.513 43.1773 724.586 43.2503L726.565 45.2289C726.619 45.2834 726.656 45.353 726.672 45.4287C726.687 45.5045 726.679 45.583 726.649 45.6543C726.62 45.7257 726.57 45.7867 726.505 45.8295C726.441 45.8723 726.366 45.8951 726.288 45.895V45.895Z" fill="#C9D1D9"/>
</svg>
