<svg width="830" height="76" viewBox="0 0 830 76" fill="none" xmlns="http://www.w3.org/2000/svg">
<rect width="830" height="76" fill="#0D1117"/>
<rect x="70" y="1" width="688" height="74" rx="6" fill="#C9D1D9"/>
<path d="M136.227 33.9182L132.263 46H129.07L134.485 31.4258H136.517L136.227 33.9182ZM139.52 46L135.546 33.9182L135.226 31.4258H137.278L142.723 46H139.52ZM139.34 40.5747V42.927H131.643V40.5747H139.34ZM152.343 41.1653H155.336C155.276 42.1462 155.005 43.0171 154.525 43.7778C154.051 44.5386 153.387 45.1325 152.533 45.5596C151.685 45.9867 150.664 46.2002 149.47 46.2002C148.536 46.2002 147.698 46.04 146.958 45.7197C146.217 45.3927 145.583 44.9256 145.056 44.3184C144.535 43.7111 144.138 42.9771 143.865 42.1162C143.591 41.2554 143.454 40.2911 143.454 39.2234V38.2124C143.454 37.1447 143.594 36.1804 143.875 35.3196C144.161 34.4521 144.569 33.7147 145.096 33.1074C145.63 32.5002 146.267 32.033 147.008 31.7061C147.748 31.3791 148.576 31.2156 149.49 31.2156C150.705 31.2156 151.729 31.4358 152.563 31.8762C153.404 32.3167 154.054 32.9239 154.515 33.698C154.982 34.4721 155.262 35.3529 155.356 36.3406H152.353C152.319 35.7533 152.203 35.2562 152.002 34.8491C151.802 34.4354 151.499 34.1251 151.092 33.9182C150.691 33.7047 150.157 33.5979 149.49 33.5979C148.99 33.5979 148.552 33.6913 148.179 33.8782C147.805 34.065 147.491 34.3486 147.238 34.729C146.984 35.1094 146.794 35.5898 146.667 36.1704C146.547 36.7443 146.487 37.4183 146.487 38.1924V39.2234C146.487 39.9775 146.544 40.6414 146.657 41.2153C146.771 41.7826 146.944 42.263 147.178 42.6567C147.418 43.0438 147.725 43.3374 148.099 43.5376C148.479 43.7311 148.936 43.8279 149.47 43.8279C150.097 43.8279 150.614 43.7278 151.021 43.5276C151.429 43.3274 151.739 43.0304 151.952 42.6367C152.173 42.243 152.303 41.7525 152.343 41.1653ZM167.087 43.6577V46H159.33V43.6577H167.087ZM160.311 31.4258V46H157.308V31.4258H160.311ZM166.076 37.3616V39.6438H159.33V37.3616H166.076ZM167.077 31.4258V33.7781H159.33V31.4258H167.077ZM176.426 42.1863C176.426 41.926 176.386 41.6925 176.306 41.4856C176.233 41.2721 176.093 41.0785 175.886 40.905C175.679 40.7249 175.389 40.548 175.015 40.3745C174.641 40.201 174.157 40.0208 173.563 39.834C172.903 39.6204 172.276 39.3802 171.682 39.1133C171.094 38.8464 170.574 38.5361 170.12 38.1824C169.673 37.822 169.319 37.4049 169.059 36.9312C168.806 36.4574 168.679 35.9068 168.679 35.2795C168.679 34.6723 168.812 34.1217 169.079 33.6279C169.346 33.1274 169.72 32.7004 170.2 32.3467C170.681 31.9863 171.248 31.7094 171.902 31.5159C172.562 31.3223 173.287 31.2256 174.074 31.2256C175.148 31.2256 176.086 31.4191 176.887 31.8062C177.688 32.1932 178.308 32.7237 178.749 33.3977C179.196 34.0717 179.419 34.8424 179.419 35.71H176.436C176.436 35.2829 176.346 34.9092 176.166 34.5889C175.993 34.2619 175.726 34.005 175.365 33.8181C175.012 33.6313 174.564 33.5378 174.024 33.5378C173.503 33.5378 173.07 33.6179 172.723 33.7781C172.376 33.9316 172.115 34.1418 171.942 34.4087C171.768 34.6689 171.682 34.9626 171.682 35.2896C171.682 35.5365 171.742 35.76 171.862 35.9602C171.989 36.1604 172.175 36.3472 172.422 36.5208C172.669 36.6943 172.973 36.8577 173.333 37.0112C173.694 37.1647 174.111 37.3149 174.584 37.4617C175.379 37.7019 176.076 37.9722 176.677 38.2725C177.284 38.5728 177.791 38.9097 178.198 39.2834C178.605 39.6571 178.912 40.0809 179.119 40.5547C179.326 41.0285 179.429 41.5657 179.429 42.1663C179.429 42.8002 179.306 43.3674 179.059 43.8679C178.812 44.3684 178.455 44.7922 177.988 45.1392C177.521 45.4862 176.963 45.7498 176.316 45.9299C175.669 46.1101 174.945 46.2002 174.144 46.2002C173.423 46.2002 172.713 46.1068 172.012 45.9199C171.311 45.7264 170.674 45.4361 170.1 45.0491C169.533 44.662 169.079 44.1682 168.739 43.5676C168.398 42.967 168.228 42.2563 168.228 41.4355H171.241C171.241 41.8893 171.311 42.273 171.451 42.5867C171.592 42.9003 171.788 43.1539 172.042 43.3474C172.302 43.5409 172.609 43.6811 172.963 43.7678C173.323 43.8546 173.717 43.8979 174.144 43.8979C174.665 43.8979 175.092 43.8245 175.425 43.6777C175.766 43.5309 176.016 43.3274 176.176 43.0671C176.343 42.8069 176.426 42.5133 176.426 42.1863ZM189.059 42.1863C189.059 41.926 189.019 41.6925 188.938 41.4856C188.865 41.2721 188.725 41.0785 188.518 40.905C188.311 40.7249 188.021 40.548 187.647 40.3745C187.274 40.201 186.79 40.0208 186.196 39.834C185.535 39.6204 184.908 39.3802 184.314 39.1133C183.727 38.8464 183.206 38.5361 182.752 38.1824C182.305 37.822 181.952 37.4049 181.691 36.9312C181.438 36.4574 181.311 35.9068 181.311 35.2795C181.311 34.6723 181.444 34.1217 181.711 33.6279C181.978 33.1274 182.352 32.7004 182.833 32.3467C183.313 31.9863 183.88 31.7094 184.534 31.5159C185.195 31.3223 185.919 31.2256 186.706 31.2256C187.781 31.2256 188.718 31.4191 189.519 31.8062C190.32 32.1932 190.94 32.7237 191.381 33.3977C191.828 34.0717 192.052 34.8424 192.052 35.71H189.069C189.069 35.2829 188.979 34.9092 188.798 34.5889C188.625 34.2619 188.358 34.005 187.998 33.8181C187.644 33.6313 187.197 33.5378 186.656 33.5378C186.136 33.5378 185.702 33.6179 185.355 33.7781C185.008 33.9316 184.748 34.1418 184.574 34.4087C184.401 34.6689 184.314 34.9626 184.314 35.2896C184.314 35.5365 184.374 35.76 184.494 35.9602C184.621 36.1604 184.808 36.3472 185.055 36.5208C185.302 36.6943 185.605 36.8577 185.966 37.0112C186.326 37.1647 186.743 37.3149 187.217 37.4617C188.011 37.7019 188.708 37.9722 189.309 38.2725C189.916 38.5728 190.423 38.9097 190.83 39.2834C191.237 39.6571 191.544 40.0809 191.751 40.5547C191.958 41.0285 192.062 41.5657 192.062 42.1663C192.062 42.8002 191.938 43.3674 191.691 43.8679C191.444 44.3684 191.087 44.7922 190.62 45.1392C190.153 45.4862 189.596 45.7498 188.948 45.9299C188.301 46.1101 187.577 46.2002 186.776 46.2002C186.056 46.2002 185.345 46.1068 184.644 45.9199C183.944 45.7264 183.306 45.4361 182.732 45.0491C182.165 44.662 181.711 44.1682 181.371 43.5676C181.031 42.967 180.861 42.2563 180.861 41.4355H183.874C183.874 41.8893 183.944 42.273 184.084 42.5867C184.224 42.9003 184.421 43.1539 184.674 43.3474C184.935 43.5409 185.242 43.6811 185.595 43.7678C185.956 43.8546 186.349 43.8979 186.776 43.8979C187.297 43.8979 187.724 43.8245 188.058 43.6777C188.398 43.5309 188.648 43.3274 188.808 43.0671C188.975 42.8069 189.059 42.5133 189.059 42.1863ZM200.029 33.9182L196.065 46H192.872L198.288 31.4258H200.32L200.029 33.9182ZM203.323 46L199.349 33.9182L199.028 31.4258H201.08L206.526 46H203.323ZM203.142 40.5747V42.927H195.445V40.5747H203.142ZM207.877 31.4258H213.312C214.427 31.4258 215.384 31.5926 216.185 31.9263C216.993 32.2599 217.613 32.7537 218.047 33.4077C218.481 34.0617 218.698 34.8658 218.698 35.8201C218.698 36.6008 218.564 37.2715 218.297 37.832C218.037 38.3859 217.667 38.8497 217.186 39.2234C216.712 39.5904 216.155 39.884 215.514 40.1042L214.563 40.6047H209.839L209.819 38.2625H213.332C213.859 38.2625 214.297 38.169 214.644 37.9822C214.991 37.7953 215.251 37.5351 215.424 37.2014C215.604 36.8678 215.695 36.4807 215.695 36.0403C215.695 35.5732 215.608 35.1694 215.434 34.8291C215.261 34.4888 214.997 34.2285 214.644 34.0483C214.29 33.8682 213.846 33.7781 213.312 33.7781H210.88V46H207.877V31.4258ZM216.025 46L212.702 39.5037L215.875 39.4836L219.238 45.8599V46H216.025ZM231.79 40.8049H228.077V38.4626H231.79C232.364 38.4626 232.831 38.3692 233.192 38.1824C233.552 37.9889 233.816 37.7219 233.982 37.3816C234.149 37.0413 234.233 36.6576 234.233 36.2305C234.233 35.7967 234.149 35.393 233.982 35.0193C233.816 34.6456 233.552 34.3453 233.192 34.1184C232.831 33.8915 232.364 33.7781 231.79 33.7781H229.118V46H226.115V31.4258H231.79C232.931 31.4258 233.909 31.6326 234.723 32.0464C235.544 32.4535 236.171 33.0173 236.605 33.738C237.039 34.4587 237.256 35.2829 237.256 36.2104C237.256 37.1514 237.039 37.9655 236.605 38.6528C236.171 39.3402 235.544 39.8707 234.723 40.2444C233.909 40.6181 232.931 40.8049 231.79 40.8049ZM239.328 31.4258H244.763C245.877 31.4258 246.835 31.5926 247.636 31.9263C248.443 32.2599 249.064 32.7537 249.498 33.4077C249.931 34.0617 250.148 34.8658 250.148 35.8201C250.148 36.6008 250.015 37.2715 249.748 37.832C249.488 38.3859 249.117 38.8497 248.637 39.2234C248.163 39.5904 247.606 39.884 246.965 40.1042L246.014 40.6047H241.29L241.27 38.2625H244.783C245.31 38.2625 245.747 38.169 246.094 37.9822C246.441 37.7953 246.701 37.5351 246.875 37.2014C247.055 36.8678 247.145 36.4807 247.145 36.0403C247.145 35.5732 247.059 35.1694 246.885 34.8291C246.712 34.4888 246.448 34.2285 246.094 34.0483C245.741 33.8682 245.297 33.7781 244.763 33.7781H242.331V46H239.328V31.4258ZM247.476 46L244.152 39.5037L247.325 39.4836L250.689 45.8599V46H247.476ZM264.432 38.3726V39.0632C264.432 40.171 264.282 41.1653 263.982 42.0461C263.681 42.927 263.258 43.6777 262.71 44.2983C262.163 44.9123 261.509 45.3827 260.749 45.7097C259.994 46.0367 259.157 46.2002 258.236 46.2002C257.322 46.2002 256.484 46.0367 255.724 45.7097C254.97 45.3827 254.316 44.9123 253.762 44.2983C253.208 43.6777 252.777 42.927 252.47 42.0461C252.17 41.1653 252.02 40.171 252.02 39.0632V38.3726C252.02 37.2581 252.17 36.2638 252.47 35.3896C252.771 34.5088 253.194 33.7581 253.742 33.1375C254.296 32.5168 254.95 32.0431 255.704 31.7161C256.464 31.3891 257.302 31.2256 258.216 31.2256C259.137 31.2256 259.974 31.3891 260.729 31.7161C261.489 32.0431 262.143 32.5168 262.69 33.1375C263.244 33.7581 263.671 34.5088 263.972 35.3896C264.279 36.2638 264.432 37.2581 264.432 38.3726ZM261.399 39.0632V38.3525C261.399 37.5785 261.329 36.8978 261.189 36.3105C261.049 35.7233 260.842 35.2295 260.568 34.8291C260.295 34.4287 259.961 34.1284 259.567 33.9282C259.174 33.7214 258.723 33.6179 258.216 33.6179C257.709 33.6179 257.258 33.7214 256.865 33.9282C256.478 34.1284 256.147 34.4287 255.874 34.8291C255.607 35.2295 255.403 35.7233 255.263 36.3105C255.123 36.8978 255.053 37.5785 255.053 38.3525V39.0632C255.053 39.8306 255.123 40.5113 255.263 41.1052C255.403 41.6925 255.61 42.1896 255.884 42.5967C256.157 42.9971 256.491 43.3007 256.885 43.5076C257.278 43.7144 257.729 43.8179 258.236 43.8179C258.743 43.8179 259.194 43.7144 259.587 43.5076C259.981 43.3007 260.311 42.9971 260.578 42.5967C260.845 42.1896 261.049 41.6925 261.189 41.1052C261.329 40.5113 261.399 39.8306 261.399 39.0632ZM272.49 41.5256V31.4258H275.483V41.5256C275.483 42.4999 275.269 43.3374 274.842 44.0381C274.415 44.7321 273.831 45.266 273.091 45.6396C272.357 46.0133 271.529 46.2002 270.608 46.2002C269.654 46.2002 268.81 46.04 268.076 45.7197C267.342 45.3994 266.764 44.9089 266.344 44.2483C265.924 43.581 265.713 42.7368 265.713 41.7158H268.726C268.726 42.2497 268.8 42.6734 268.947 42.9871C269.1 43.3007 269.317 43.5243 269.597 43.6577C269.877 43.7912 270.214 43.8579 270.608 43.8579C270.989 43.8579 271.319 43.7678 271.599 43.5876C271.879 43.4075 272.096 43.1439 272.25 42.7969C272.41 42.4499 272.49 42.0261 272.49 41.5256ZM287.825 43.6577V46H280.067V43.6577H287.825ZM281.048 31.4258V46H278.045V31.4258H281.048ZM286.814 37.3616V39.6438H280.067V37.3616H286.814ZM287.815 31.4258V33.7781H280.067V31.4258H287.815ZM296.293 31.4258V46H293.3V31.4258H296.293ZM300.778 31.4258V33.7781H288.886V31.4258H300.778ZM314.181 38.3726V39.0632C314.181 40.171 314.031 41.1653 313.73 42.0461C313.43 42.927 313.006 43.6777 312.459 44.2983C311.912 44.9123 311.258 45.3827 310.497 45.7097C309.743 46.0367 308.906 46.2002 307.985 46.2002C307.07 46.2002 306.233 46.0367 305.472 45.7097C304.718 45.3827 304.064 44.9123 303.51 44.2983C302.956 43.6777 302.526 42.927 302.219 42.0461C301.919 41.1653 301.769 40.171 301.769 39.0632V38.3726C301.769 37.2581 301.919 36.2638 302.219 35.3896C302.519 34.5088 302.943 33.7581 303.49 33.1375C304.044 32.5168 304.698 32.0431 305.452 31.7161C306.213 31.3891 307.05 31.2256 307.965 31.2256C308.885 31.2256 309.723 31.3891 310.477 31.7161C311.238 32.0431 311.892 32.5168 312.439 33.1375C312.993 33.7581 313.42 34.5088 313.72 35.3896C314.027 36.2638 314.181 37.2581 314.181 38.3726ZM311.148 39.0632V38.3525C311.148 37.5785 311.078 36.8978 310.938 36.3105C310.797 35.7233 310.59 35.2295 310.317 34.8291C310.043 34.4287 309.71 34.1284 309.316 33.9282C308.922 33.7214 308.472 33.6179 307.965 33.6179C307.457 33.6179 307.007 33.7214 306.613 33.9282C306.226 34.1284 305.896 34.4287 305.622 34.8291C305.355 35.2295 305.152 35.7233 305.012 36.3105C304.872 36.8978 304.802 37.5785 304.802 38.3525V39.0632C304.802 39.8306 304.872 40.5113 305.012 41.1052C305.152 41.6925 305.359 42.1896 305.632 42.5967C305.906 42.9971 306.24 43.3007 306.633 43.5076C307.027 43.7144 307.477 43.8179 307.985 43.8179C308.492 43.8179 308.942 43.7144 309.336 43.5076C309.73 43.3007 310.06 42.9971 310.327 42.5967C310.594 42.1896 310.797 41.6925 310.938 41.1052C311.078 40.5113 311.148 39.8306 311.148 39.0632Z" fill="#0D1117"/>
<path d="M113 39V45C113 45.5304 112.789 46.0391 112.414 46.4142C112.039 46.7893 111.53 47 111 47H100C99.4696 47 98.9609 46.7893 98.5858 46.4142C98.2107 46.0391 98 45.5304 98 45V34C98 33.4696 98.2107 32.9609 98.5858 32.5858C98.9609 32.2107 99.4696 32 100 32H106" stroke="#0D1117" stroke-width="2" stroke-linecap="round" stroke-linejoin="round"/>
<path d="M110 29H116V35" stroke="black" stroke-width="2" stroke-linecap="round" stroke-linejoin="round"/>
<path d="M105 40L116 29" stroke="black" stroke-width="2" stroke-linecap="round" stroke-linejoin="round"/>
<path d="M713.044 37.25C711.488 37.25 710.37 38.2633 710.37 39.7833C710.37 41.3033 711.63 42.3166 713.186 42.3166C714.124 42.3166 714.954 41.9461 715.467 41.3196L714.392 40.6985C714.108 41.0091 713.677 41.1889 713.191 41.1889C712.514 41.1889 711.941 40.8347 711.729 40.2736H715.674C715.707 40.1102 715.723 39.9467 715.723 39.7833C715.723 38.2633 714.604 37.25 713.044 37.25ZM711.712 39.2875C711.887 38.7264 712.372 38.3723 713.044 38.3723C713.715 38.3723 714.201 38.7264 714.375 39.2875H711.712ZM711.396 35.7028L707.494 42.4528L703.592 35.7028H705.055L707.494 39.9195L709.933 35.7028H711.396ZM698.206 35L703.412 44H693L698.206 35ZM721.382 39.7833C721.382 40.6277 721.933 41.1889 722.79 41.1889C723.368 41.1889 723.805 40.9274 724.029 40.497L725.115 41.118C724.667 41.8644 723.827 42.3111 722.795 42.3111C721.24 42.3111 720.121 41.2978 720.121 39.7778C720.121 38.2579 721.24 37.2446 722.795 37.2446C723.827 37.2446 724.667 37.6913 725.115 38.4377L724.034 39.0587C723.81 38.6283 723.374 38.3668 722.795 38.3668C721.939 38.3777 721.382 38.9389 721.382 39.7833ZM733 35.7028V42.1695H731.734V35.7028H733ZM728.214 37.25C726.659 37.25 725.54 38.2633 725.54 39.7833C725.54 41.3033 726.801 42.3166 728.356 42.3166C729.295 42.3166 730.124 41.9461 730.637 41.3196L729.562 40.6985C729.278 41.0091 728.847 41.1889 728.362 41.1889C727.685 41.1889 727.112 40.8347 726.899 40.2736H730.844C730.877 40.1102 730.894 39.9467 730.894 39.7833C730.888 38.2633 729.769 37.25 728.214 37.25ZM726.883 39.2875C727.057 38.7264 727.538 38.3723 728.214 38.3723C728.891 38.3723 729.371 38.7264 729.546 39.2875H726.883ZM719.696 37.3916V38.7536C719.548 38.71 719.396 38.6883 719.243 38.6828C718.424 38.6828 717.835 39.2439 717.835 40.0884V42.1695H716.569V37.3916H717.835V38.6828C717.835 37.9691 718.664 37.3916 719.696 37.3916Z" fill="#282E35"/>
</svg>
